<?xml version="1.0" encoding="UTF-8" standalone="no"?>
<!DOCTYPE svg PUBLIC "-//W3C//DTD SVG 1.1//EN"
 "http://www.w3.org/Graphics/SVG/1.1/DTD/svg11.dtd">
<!-- Generated by graphviz version 2.47.0 (20210316.0004)
 -->
<!-- Title: dependencies Pages: 1 -->
<svg width="504pt" height="279pt"
 viewBox="0.00 0.00 504.00 279.00" xmlns="http://www.w3.org/2000/svg" xmlns:xlink="http://www.w3.org/1999/xlink">
<g id="graph0" class="graph" transform="scale(1 1) rotate(0) translate(4 275)">
<title>dependencies</title>
<polygon fill="white" stroke="transparent" points="-4,4 -4,-275 500,-275 500,4 -4,4"/>
<text text-anchor="start" x="227.01" y="-42.4" font-family="Times-12" font-weight="bold" font-size="14.00">Legend</text>
<polygon fill="#ffffb3" stroke="transparent" points="14,-10 14,-30 34,-30 34,-10 14,-10"/>
<text text-anchor="start" x="37.63" y="-15.4" font-family="Times-12" font-size="14.00"> &#160;Declarations</text>
<polygon fill="#8dd3c7" stroke="transparent" points="127,-10 127,-30 147,-30 147,-10 127,-10"/>
<text text-anchor="start" x="150.73" y="-15.4" font-family="Times-12" font-size="14.00"> &#160;Module</text>
<polygon fill="#80b1d3" stroke="transparent" points="213,-10 213,-30 233,-30 233,-10 213,-10"/>
<text text-anchor="start" x="236.78" y="-15.4" font-family="Times-12" font-size="14.00"> &#160;Bootstrap</text>
<polygon fill="#fdb462" stroke="transparent" points="310,-10 310,-30 330,-30 330,-10 310,-10"/>
<text text-anchor="start" x="333.67" y="-15.4" font-family="Times-12" font-size="14.00"> &#160;Providers</text>
<polygon fill="#fb8072" stroke="transparent" points="406,-10 406,-30 426,-30 426,-10 406,-10"/>
<text text-anchor="start" x="429.73" y="-15.4" font-family="Times-12" font-size="14.00"> &#160;Exports</text>
<g id="clust1" class="cluster">
<title>cluster_AppModule</title>
<polygon fill="none" stroke="black" stroke-dasharray="1,5" points="25,-70 25,-263 305,-263 305,-70 25,-70"/>
</g>
<g id="clust3" class="cluster">
<title>cluster_AppModule_imports</title>
<polygon fill="none" stroke="black" points="171,-78 171,-198 297,-198 297,-78 171,-78"/>
</g>
<g id="clust6" class="cluster">
<title>cluster_AppModule_providers</title>
<polygon fill="none" stroke="black" points="33,-146 33,-198 163,-198 163,-146 33,-146"/>
</g>
<g id="clust13" class="cluster">
<title>cluster_PhotoModule</title>
<polygon fill="none" stroke="black" stroke-dasharray="1,5" points="313,-70 313,-138 471,-138 471,-70 313,-70"/>
</g>
<g id="clust18" class="cluster">
<title>cluster_PhotoModule_providers</title>
<polygon fill="none" stroke="black" points="321,-78 321,-130 463,-130 463,-78 321,-78"/>
</g>
<!-- DatabaseModule -->
<g id="node1" class="node">
<title>DatabaseModule</title>
<polygon fill="#8dd3c7" stroke="black" points="289.35,-122 286.35,-126 265.35,-126 262.35,-122 178.65,-122 178.65,-86 289.35,-86 289.35,-122"/>
<text text-anchor="middle" x="234" y="-99.8" font-family="Times,serif" font-size="14.00">DatabaseModule</text>
</g>
<!-- PhotoModule -->
<g id="node2" class="node">
<title>PhotoModule</title>
<polygon fill="#8dd3c7" stroke="black" points="287.22,-190 284.22,-194 263.22,-194 260.22,-190 194.78,-190 194.78,-154 287.22,-154 287.22,-190"/>
<text text-anchor="middle" x="241" y="-167.8" font-family="Times,serif" font-size="14.00">PhotoModule</text>
</g>
<!-- DatabaseModule&#45;&gt;PhotoModule -->
<g id="edge4" class="edge">
<title>DatabaseModule&#45;&gt;PhotoModule</title>
<path fill="none" stroke="black" d="M241,-122.22C241,-122.22 241,-143.73 241,-143.73"/>
<polygon fill="black" stroke="black" points="237.5,-143.73 241,-153.73 244.5,-143.73 237.5,-143.73"/>
</g>
<!-- AppModule -->
<g id="node3" class="node">
<title>AppModule</title>
<polygon fill="#8dd3c7" stroke="black" points="217.66,-255 214.66,-259 193.66,-259 190.66,-255 134.34,-255 134.34,-219 217.66,-219 217.66,-255"/>
<text text-anchor="middle" x="176" y="-232.8" font-family="Times,serif" font-size="14.00">AppModule</text>
</g>
<!-- DatabaseModule&#45;&gt;AppModule -->
<g id="edge1" class="edge">
<title>DatabaseModule&#45;&gt;AppModule</title>
<path fill="none" stroke="black" d="M186.73,-122.21C186.73,-122.21 186.73,-208.58 186.73,-208.58"/>
<polygon fill="black" stroke="black" points="183.23,-208.58 186.73,-218.58 190.23,-208.58 183.23,-208.58"/>
</g>
<!-- PhotoModule&#45;&gt;AppModule -->
<g id="edge2" class="edge">
<title>PhotoModule&#45;&gt;AppModule</title>
<path fill="none" stroke="black" d="M206.36,-190.11C206.36,-190.11 206.36,-208.99 206.36,-208.99"/>
<polygon fill="black" stroke="black" points="202.86,-208.99 206.36,-218.99 209.86,-208.99 202.86,-208.99"/>
</g>
<!-- AppService -->
<g id="node4" class="node">
<title>AppService</title>
<ellipse fill="#fdb462" stroke="black" cx="98" cy="-172" rx="56.74" ry="18"/>
<text text-anchor="middle" x="98" y="-167.8" font-family="Times,serif" font-size="14.00">AppService</text>
</g>
<!-- AppService&#45;&gt;AppModule -->
<g id="edge3" class="edge">
<title>AppService&#45;&gt;AppModule</title>
<path fill="none" stroke="black" d="M144.4,-182.44C144.4,-182.44 144.4,-208.97 144.4,-208.97"/>
<polygon fill="black" stroke="black" points="140.9,-208.97 144.4,-218.97 147.9,-208.97 140.9,-208.97"/>
</g>
<!-- PhotoService -->
<g id="node5" class="node">
<title>PhotoService</title>
<ellipse fill="#fdb462" stroke="black" cx="392" cy="-104" rx="62.56" ry="18"/>
<text text-anchor="middle" x="392" y="-99.8" font-family="Times,serif" font-size="14.00">PhotoService</text>
</g>
<!-- PhotoService&#45;&gt;PhotoModule -->
<g id="edge5" class="edge">
<title>PhotoService&#45;&gt;PhotoModule</title>
<path fill="none" stroke="black" d="M392,-122.22C392,-142.37 392,-172 392,-172 392,-172 297.13,-172 297.13,-172"/>
<polygon fill="black" stroke="black" points="297.13,-168.5 287.13,-172 297.13,-175.5 297.13,-168.5"/>
</g>
</g>
</svg>
